<?xml version="1.0" encoding="iso-8859-1"?>
<!-- Uploaded to: SVG Repo, www.svgrepo.com, Generator: SVG Repo Mixer Tools -->
<svg fill="#000000" height="800px" width="800px" version="1.1" id="Layer_1" xmlns="http://www.w3.org/2000/svg" xmlns:xlink="http://www.w3.org/1999/xlink" 
	 viewBox="0 0 512 512" xml:space="preserve">
<g>
	<g>
		<path d="M281.6,0c-4.71,0-8.533,3.814-8.533,8.533V230.4c0,4.719,3.823,8.533,8.533,8.533h221.867c4.71,0,8.533-3.814,8.533-8.533
			C512,103.356,408.644,0,281.6,0z"/>
	</g>
</g>
<g>
	<g>
		<path d="M486.4,256H256V25.6c0-4.719-3.823-8.533-8.533-8.533C111.01,17.067,0,128.085,0,264.533S111.01,512,247.467,512
			s247.467-111.019,247.467-247.467C494.933,259.814,491.11,256,486.4,256z"/>
	</g>
</g>
</svg>